<svg width="35" height="36" viewBox="0 0 35 36" fill="none" xmlns="http://www.w3.org/2000/svg">
<path d="M13.9589 0C6.24175 0 0 6.24175 0 13.9589C0 21.6761 6.24175 27.9179 13.9589 27.9179C16.7142 27.9179 19.2641 27.1096 21.426 25.7368L31.5103 35.8211L35 32.3314L25.044 22.401C26.8338 20.0532 27.9179 17.144 27.9179 13.9589C27.9179 6.24175 21.6761 0 13.9589 0ZM13.9589 3.28446C19.8703 3.28446 24.6334 8.04756 24.6334 13.9589C24.6334 19.8703 19.8703 24.6334 13.9589 24.6334C8.04756 24.6334 3.28446 19.8703 3.28446 13.9589C3.28446 8.04756 8.04756 3.28446 13.9589 3.28446Z" fill="#313131"/>
</svg>
