<svg width="16" height="16" viewBox="0 0 16 16" fill="none" xmlns="http://www.w3.org/2000/svg">
<g clip-path="url(#clip0_0_91)">
<path fill-rule="evenodd" clip-rule="evenodd" d="M3.04407 13.7703C2.98915 13.7187 2.93484 13.666 2.88116 13.6123C0.0472641 10.7784 0.0472646 6.18378 2.88116 3.3499C5.71503 0.516001 14.7449 0.326416 14.7449 0.326416C14.7449 0.326416 15.9775 10.7784 13.1436 13.6123C10.6267 16.1292 6.72103 16.4107 3.89344 14.457L6.17182 11.6611L9.814 10.8747L6.84091 10.5775L8.73035 8.65368L10.8811 8.18253L9.18041 7.67887L10.8811 4.61087L8.46203 7.32425L7.52788 6.00603L7.85672 8.18253L6.17182 10.082L5.39078 7.67884V10.8747L3.04407 13.7703Z" fill="white"/>
</g>
<defs>
<clipPath id="clip0_0_91">
<rect width="16" height="16" fill="white"/>
</clipPath>
</defs>
</svg>
