<svg width="16" height="16" viewBox="0 0 16 16" fill="none" xmlns="http://www.w3.org/2000/svg">
<path fill-rule="evenodd" clip-rule="evenodd" d="M12.0096 1.22009L12.0588 5.54354L8.28783 7.35375L8.24133 3.2716L12.0096 1.22009Z" fill="white"/>
<path fill-rule="evenodd" clip-rule="evenodd" d="M15.7897 8.03273L12.0567 10.168L8.32153 8.02936L12.0548 6.06836L15.7897 8.03273Z" fill="white"/>
<path fill-rule="evenodd" clip-rule="evenodd" d="M7.6575 8.03273L3.92453 10.168L0.189331 8.02936L3.92259 6.06836L7.6575 8.03273Z" fill="white"/>
<path fill-rule="evenodd" clip-rule="evenodd" d="M3.88257 1.20239L7.75713 3.12132L7.65807 7.30307L3.99976 5.49126L3.88257 1.20239Z" fill="white"/>
<path fill-rule="evenodd" clip-rule="evenodd" d="M12.1149 14.7976L8.24036 12.8787L8.33942 8.6969L11.9977 10.5087L12.1149 14.7976Z" fill="white"/>
<path fill-rule="evenodd" clip-rule="evenodd" d="M4.01641 14.8365L3.96716 10.5131L7.73813 8.70288L7.78463 12.785L4.01641 14.8365Z" fill="white"/>
</svg>
